<?xml version="1.0" encoding="utf-8"?>
<!-- Generator: Adobe Illustrator 19.2.1, SVG Export Plug-In . SVG Version: 6.00 Build 0)  -->
<!DOCTYPE svg PUBLIC "-//W3C//DTD SVG 1.1//EN" "http://www.w3.org/Graphics/SVG/1.1/DTD/svg11.dtd">
<svg version="1.1" id="Layer_1" xmlns="http://www.w3.org/2000/svg" xmlns:xlink="http://www.w3.org/1999/xlink" x="0px" y="0px"
	 viewBox="0 0 288 288" enable-background="new 0 0 288 288" xml:space="preserve">
<g>
	<polygon fill="#EB8623" points="113.2,99.7 78.9,54.7 4.5,111.4 63.9,189.3 81.8,175.6 36.1,115.7 74.6,86.3 109,131.3 178.7,78.1 
		165,60.2 	"/>
	<polygon fill="#91C73E" points="189.3,114.7 234.4,80.3 177.6,6 99.8,65.4 113.5,83.3 173.4,37.6 202.7,76.1 157.7,110.4 
		210.9,180.2 228.8,166.5 	"/>
	<polygon fill="#C92562" points="174.8,190.4 209.1,235.5 283.5,178.8 224.1,100.9 206.2,114.6 251.9,174.5 213.4,203.9 179,158.8 
		109.3,212 123,230 	"/>
	<polygon fill="#4EACB7" points="97,173.3 52,207.7 108.7,282 186.5,222.6 172.9,204.7 112.9,250.4 83.6,211.9 128.6,177.6 
		75.4,107.8 57.5,121.5 	"/>
</g>
</svg>
