<?xml version="1.0" encoding="utf-8"?>
<!-- Generator: Adobe Illustrator 19.2.1, SVG Export Plug-In . SVG Version: 6.00 Build 0)  -->
<!DOCTYPE svg PUBLIC "-//W3C//DTD SVG 1.1//EN" "http://www.w3.org/Graphics/SVG/1.1/DTD/svg11.dtd">
<svg version="1.1" id="Layer_1" xmlns="http://www.w3.org/2000/svg" xmlns:xlink="http://www.w3.org/1999/xlink" x="0px" y="0px"
	 viewBox="0 0 288 288" enable-background="new 0 0 288 288" xml:space="preserve">
<g>
	<polygon fill="#EB8623" points="166.8,191 192.8,241.3 275.9,198.3 230.9,111.3 210.9,121.7 245.5,188.6 202.5,210.9 176.4,160.6 
		98.6,200.9 108.9,220.9 	"/>
	<polygon fill="#91C73E" points="94.5,163 44.1,189 87.1,272.1 174.1,227.1 163.7,207.1 96.7,241.7 74.6,198.7 124.8,172.7 
		84.6,94.7 64.6,105.1 	"/>
	<polygon fill="#C92562" points="121.9,91 96,40.6 12.8,83.5 57.8,170.6 77.8,160.2 43.2,93.2 86.2,71 112.3,121.4 190.2,81.1 
		179.8,61 	"/>
	<polygon fill="#4EACB7" points="195.5,121.3 245.8,95.3 202.9,12.2 116,57.2 126.3,77.2 193.3,42.6 215.4,85.6 165.2,111.6 
		205.4,189.6 225.5,179.2 	"/>
</g>
</svg>
