<?xml version="1.0" encoding="utf-8"?>
<!-- Generator: Adobe Illustrator 19.2.1, SVG Export Plug-In . SVG Version: 6.00 Build 0)  -->
<!DOCTYPE svg PUBLIC "-//W3C//DTD SVG 1.1//EN" "http://www.w3.org/Graphics/SVG/1.1/DTD/svg11.dtd">
<svg version="1.1" id="Layer_1" xmlns="http://www.w3.org/2000/svg" xmlns:xlink="http://www.w3.org/1999/xlink" x="0px" y="0px"
	 viewBox="0 0 288 288" enable-background="new 0 0 288 288" xml:space="preserve">
<g>
	<g>
		<path fill="#231F20" d="M15.9,206l0.2-3.5h-0.2l-3.6,5.9h-0.8l-3.8-5.9H7.5l0.2,3.2v12.4H3.5v-22.6H8l3.9,6.3H12l3.8-6.3h4.5v22.6
			h-4.4V206z"/>
		<path fill="#231F20" d="M28.6,206.8c0-1.8,0.2-3.5,0.5-4.9c0.3-1.5,0.9-2.7,1.6-3.7c0.7-1,1.6-1.8,2.7-2.3
			c1.1-0.5,2.3-0.8,3.8-0.8c1.6,0,2.9,0.3,3.9,0.9c1.1,0.6,2,1.4,2.6,2.4s1.2,2.3,1.5,3.7c0.3,1.4,0.5,3,0.5,4.7
			c0,3.7-0.7,6.6-2.1,8.6c-1.4,2.1-3.5,3.1-6.4,3.1c-1.6,0-2.9-0.3-4-0.9c-1.1-0.6-2-1.4-2.6-2.4c-0.7-1-1.2-2.3-1.5-3.7
			C28.8,210.1,28.6,208.5,28.6,206.8z M33.3,206.8c0,1.1,0,2.1,0.1,3.1s0.3,1.8,0.5,2.5c0.3,0.7,0.7,1.3,1.2,1.7
			c0.5,0.4,1.2,0.6,2,0.6c0.8,0,1.4-0.2,1.9-0.5c0.5-0.3,0.9-0.8,1.2-1.4c0.3-0.6,0.5-1.5,0.6-2.4c0.1-1,0.2-2.1,0.2-3.5
			c0-1.1,0-2.1-0.1-3c-0.1-0.9-0.2-1.8-0.5-2.5c-0.3-0.7-0.7-1.3-1.2-1.7c-0.5-0.4-1.2-0.6-2.1-0.6c-1.5,0-2.5,0.7-3.1,2
			C33.5,202.2,33.3,204.2,33.3,206.8z"/>
		<path fill="#231F20" d="M58.6,204.7h-0.2l0.2,2.7v10.7h-4.2v-22.6h3.9l7.8,13.8h0.2l-0.3-2.7v-11.1h4.2v22.6h-3.9L58.6,204.7z"/>
		<path fill="#231F20" d="M79,206.8c0-1.8,0.2-3.5,0.5-4.9c0.3-1.5,0.9-2.7,1.6-3.7c0.7-1,1.6-1.8,2.7-2.3c1.1-0.5,2.3-0.8,3.8-0.8
			c1.6,0,2.9,0.3,3.9,0.9c1.1,0.6,2,1.4,2.6,2.4s1.2,2.3,1.5,3.7c0.3,1.4,0.5,3,0.5,4.7c0,3.7-0.7,6.6-2.1,8.6
			c-1.4,2.1-3.5,3.1-6.4,3.1c-1.6,0-2.9-0.3-4-0.9c-1.1-0.6-2-1.4-2.6-2.4c-0.7-1-1.2-2.3-1.5-3.7C79.2,210.1,79,208.5,79,206.8z
			 M83.7,206.8c0,1.1,0,2.1,0.1,3.1s0.3,1.8,0.5,2.5c0.3,0.7,0.7,1.3,1.2,1.7c0.5,0.4,1.2,0.6,2,0.6c0.8,0,1.4-0.2,1.9-0.5
			c0.5-0.3,0.9-0.8,1.2-1.4c0.3-0.6,0.5-1.5,0.6-2.4c0.1-1,0.2-2.1,0.2-3.5c0-1.1,0-2.1-0.1-3c-0.1-0.9-0.2-1.8-0.5-2.5
			c-0.3-0.7-0.7-1.3-1.2-1.7c-0.5-0.4-1.2-0.6-2.1-0.6c-1.5,0-2.5,0.7-3.1,2C83.9,202.2,83.7,204.2,83.7,206.8z"/>
		<path fill="#231F20" d="M111.3,208.6H109v9.4h-4.4v-22.6h4.4v9.2h2.3l5.2-9.2h5l-6.4,10.9l7.2,11.7h-5.5L111.3,208.6z"/>
		<path fill="#231F20" d="M141.2,213.1h-6.8l-1.6,5h-4.4l7.3-22.6h4.4l7.3,22.6h-4.7L141.2,213.1z M135.4,209.5h4.8L138,202h-0.3
			L135.4,209.5z"/>
		<path fill="#231F20" d="M155.2,214.1h5.7v-14.7h-5.7v-3.9h15.9v3.9h-5.8v14.7h5.8v3.9h-15.9V214.1z"/>
	</g>
	<g>
		<path fill="#231F20" d="M204,210.5h3.6v6.5c-0.7,0.5-1.6,0.9-2.6,1.2c-1.1,0.3-2.2,0.4-3.3,0.4c-1.4,0-2.8-0.2-4.1-0.6
			c-1.3-0.4-2.4-1.1-3.4-2c-1-0.9-1.7-2.2-2.3-3.7c-0.6-1.5-0.9-3.3-0.9-5.4c0-2.2,0.3-4.1,1-5.6c0.7-1.5,1.5-2.7,2.5-3.6
			c1-0.9,2.2-1.6,3.5-2c1.3-0.4,2.5-0.6,3.7-0.6c1.3,0,2.4,0.1,3.3,0.3c0.9,0.2,1.6,0.5,2.2,0.7v6.7h-3.6v-3.7
			c-0.7-0.1-1.4-0.2-2.1-0.2c-0.8,0-1.6,0.2-2.3,0.5c-0.7,0.3-1.4,0.8-1.9,1.4c-0.5,0.6-1,1.5-1.3,2.4c-0.3,1-0.5,2.1-0.5,3.5
			c0,1.2,0.1,2.2,0.4,3.2c0.3,1,0.7,1.8,1.2,2.5c0.5,0.7,1.2,1.2,2,1.6c0.8,0.4,1.7,0.6,2.6,0.6c0.7,0,1.4-0.1,2.1-0.2V210.5z"/>
		<path fill="#231F20" d="M216.1,206.8c0-1.8,0.2-3.5,0.5-4.9c0.3-1.5,0.9-2.7,1.6-3.7c0.7-1,1.6-1.8,2.7-2.3
			c1.1-0.5,2.3-0.8,3.8-0.8c1.6,0,2.9,0.3,3.9,0.9c1.1,0.6,2,1.4,2.6,2.4c0.7,1,1.2,2.3,1.5,3.7c0.3,1.4,0.5,3,0.5,4.7
			c0,3.7-0.7,6.6-2.1,8.6c-1.4,2.1-3.5,3.1-6.4,3.1c-1.6,0-2.9-0.3-4-0.9c-1.1-0.6-2-1.4-2.6-2.4c-0.7-1-1.2-2.3-1.5-3.7
			C216.2,210.1,216.1,208.5,216.1,206.8z M220.7,206.8c0,1.1,0,2.1,0.1,3.1c0.1,0.9,0.3,1.8,0.5,2.5c0.3,0.7,0.7,1.3,1.2,1.7
			c0.5,0.4,1.2,0.6,2,0.6c0.8,0,1.4-0.2,1.9-0.5c0.5-0.3,0.9-0.8,1.2-1.4c0.3-0.6,0.5-1.5,0.6-2.4c0.1-1,0.2-2.1,0.2-3.5
			c0-1.1,0-2.1-0.1-3c-0.1-0.9-0.2-1.8-0.5-2.5c-0.3-0.7-0.7-1.3-1.2-1.7c-0.5-0.4-1.2-0.6-2.1-0.6c-1.5,0-2.5,0.7-3.1,2
			C221,202.2,220.7,204.2,220.7,206.8z"/>
		<path fill="#231F20" d="M241.7,195.5c0.2,0,0.5-0.1,1-0.1c0.5,0,1-0.1,1.6-0.1c0.6,0,1.2-0.1,1.9-0.1c0.7,0,1.2,0,1.8,0
			c2,0,3.7,0.3,5,0.9c1.3,0.6,2.4,1.4,3.1,2.4c0.8,1,1.3,2.2,1.6,3.6c0.3,1.4,0.5,2.9,0.5,4.5c0,1.5-0.2,2.9-0.5,4.4
			c-0.3,1.4-0.8,2.7-1.6,3.8c-0.8,1.1-1.9,2-3.3,2.7c-1.4,0.7-3.2,1-5.3,1c-0.3,0-0.8,0-1.3,0c-0.5,0-1.1,0-1.6-0.1
			c-0.6,0-1.1-0.1-1.6-0.1c-0.5,0-0.9-0.1-1.2-0.1V195.5z M248.2,199.1c-0.4,0-0.8,0-1.2,0c-0.4,0-0.7,0.1-0.9,0.1v15.2
			c0.1,0,0.2,0,0.4,0c0.2,0,0.3,0,0.5,0c0.2,0,0.4,0,0.5,0c0.2,0,0.3,0,0.4,0c1.2,0,2.2-0.2,3-0.7c0.7-0.5,1.3-1.1,1.7-1.8
			c0.4-0.8,0.6-1.6,0.7-2.6c0.1-0.9,0.2-1.9,0.2-2.8c0-0.8,0-1.7-0.1-2.6c-0.1-0.9-0.3-1.7-0.7-2.4c-0.4-0.7-0.9-1.3-1.6-1.8
			C250.4,199.3,249.4,199.1,248.2,199.1z"/>
		<path fill="#231F20" d="M267.6,195.5h14.8v3.9H272v5.3h9.6v3.9H272v5.5h10.6v3.9h-15V195.5z"/>
	</g>
	<g>
		<path fill="#231F20" d="M13.7,240.5h2.7v4.9c-0.5,0.4-1.2,0.7-2,0.9c-0.8,0.2-1.6,0.3-2.5,0.3c-1.1,0-2.1-0.2-3.1-0.5
			c-1-0.3-1.8-0.8-2.6-1.5c-0.7-0.7-1.3-1.6-1.8-2.8c-0.4-1.1-0.7-2.5-0.7-4.1c0-1.7,0.2-3.1,0.7-4.2c0.5-1.1,1.1-2.1,1.9-2.7
			s1.7-1.2,2.6-1.5c1-0.3,1.9-0.5,2.8-0.5c1,0,1.8,0.1,2.5,0.2c0.7,0.2,1.2,0.4,1.7,0.6v5.1h-2.7v-2.8c-0.5-0.1-1-0.1-1.6-0.1
			c-0.6,0-1.2,0.1-1.8,0.4c-0.5,0.2-1,0.6-1.4,1.1c-0.4,0.5-0.7,1.1-1,1.9c-0.2,0.7-0.3,1.6-0.3,2.6c0,0.9,0.1,1.7,0.3,2.4
			c0.2,0.7,0.5,1.4,0.9,1.9c0.4,0.5,0.9,0.9,1.5,1.2c0.6,0.3,1.3,0.4,2,0.4c0.5,0,1.1,0,1.6-0.1V240.5z"/>
		<path fill="#231F20" d="M44.3,237.7c0-1.4,0.1-2.6,0.4-3.8c0.3-1.1,0.7-2.1,1.2-2.8c0.5-0.8,1.2-1.3,2-1.8
			c0.8-0.4,1.8-0.6,2.9-0.6c1.2,0,2.2,0.2,3,0.7c0.8,0.4,1.5,1.1,2,1.8c0.5,0.8,0.9,1.7,1.1,2.8c0.2,1.1,0.4,2.3,0.4,3.6
			c0,2.8-0.5,5-1.6,6.6c-1.1,1.6-2.7,2.4-4.9,2.4c-1.2,0-2.2-0.2-3-0.7c-0.8-0.4-1.5-1.1-2-1.8c-0.5-0.8-0.9-1.7-1.1-2.8
			C44.4,240.2,44.3,239,44.3,237.7z M47.8,237.7c0,0.8,0,1.6,0.1,2.3c0.1,0.7,0.2,1.3,0.4,1.9c0.2,0.5,0.5,1,0.9,1.3
			c0.4,0.3,0.9,0.5,1.5,0.5c0.6,0,1-0.1,1.4-0.4c0.4-0.2,0.7-0.6,0.9-1.1c0.2-0.5,0.4-1.1,0.5-1.9c0.1-0.7,0.1-1.6,0.1-2.6
			c0-0.8,0-1.6-0.1-2.3c-0.1-0.7-0.2-1.4-0.4-1.9c-0.2-0.5-0.5-1-0.9-1.3c-0.4-0.3-0.9-0.5-1.6-0.5c-1.1,0-1.9,0.5-2.3,1.5
			C48,234.3,47.8,235.8,47.8,237.7z"/>
		<path fill="#231F20" d="M98.1,237.2l0.1-2.7H98l-2.7,4.5h-0.6l-2.9-4.5h-0.1l0.1,2.4v9.4h-3.2v-17.2h3.4l2.9,4.8h0.1l2.9-4.8h3.4
			v17.2h-3.4V237.2z"/>
		<path fill="#231F20" d="M136.5,229.3c0.7-0.1,1.4-0.2,2.3-0.3c0.8-0.1,1.6-0.1,2.5-0.1c0.9,0,1.7,0.1,2.6,0.2
			c0.9,0.1,1.6,0.4,2.3,0.8s1.2,1,1.7,1.7c0.4,0.7,0.7,1.7,0.7,2.9c0,1-0.2,1.9-0.6,2.7c-0.4,0.7-0.9,1.4-1.5,1.8
			c-0.6,0.5-1.3,0.8-2.1,1.1c-0.8,0.2-1.6,0.3-2.5,0.3c-0.1,0-0.2,0-0.4,0s-0.4,0-0.6,0c-0.2,0-0.4,0-0.6,0c-0.2,0-0.3,0-0.4,0v5.9
			h-3.4V229.3z M141.5,231.8c-0.3,0-0.6,0-0.9,0c-0.3,0-0.5,0.1-0.7,0.1v5.6c0.1,0,0.2,0,0.3,0c0.1,0,0.3,0,0.4,0c0.1,0,0.3,0,0.4,0
			c0.1,0,0.2,0,0.3,0c0.4,0,0.9,0,1.3-0.1c0.4-0.1,0.8-0.2,1.2-0.5c0.3-0.2,0.6-0.5,0.8-0.9c0.2-0.4,0.3-0.9,0.3-1.5
			c0-0.5-0.1-1-0.3-1.3s-0.5-0.6-0.8-0.8c-0.3-0.2-0.7-0.4-1.1-0.4C142.4,231.8,141.9,231.8,141.5,231.8z"/>
		<path fill="#231F20" d="M187,242.5h-5.1l-1.2,3.8h-3.4l5.5-17.2h3.4l5.5,17.2h-3.5L187,242.5z M182.6,239.8h3.7l-1.7-5.7h-0.2
			L182.6,239.8z"/>
		<path fill="#231F20" d="M227.8,236.2h-0.1l0.1,2v8.1h-3.2v-17.2h2.9l5.9,10.5h0.1l-0.2-2.1v-8.4h3.2v17.2h-2.9L227.8,236.2z"/>
		<path fill="#231F20" d="M273.2,240l-5.5-10.9h4l3.3,7.1h0.1l3.4-7.1h3.6l-5.5,10.8v6.4h-3.4V240z"/>
	</g>
</g>
<g>
	<polygon fill="#EB8623" points="142.3,140.8 142.5,170.6 191.7,170.4 191.4,118.8 179.5,118.9 179.8,158.5 154.3,158.7 
		154.1,128.9 107.9,129.1 108,141 	"/>
	<polygon fill="#91C73E" points="115,110.4 85.2,110.6 85.5,159.8 137,159.5 137,147.6 97.3,147.9 97.1,122.4 127,122.2 126.7,76 
		114.8,76.1 	"/>
	<polygon fill="#C92562" points="145.1,83.2 145,53.3 95.7,53.6 96,105.2 107.9,105.1 107.7,65.4 133.2,65.3 133.3,95.1 179.5,94.8 
		179.5,83 	"/>
	<polygon fill="#4EACB7" points="172.4,115 202.2,114.8 201.9,65.6 150.4,65.9 150.5,77.8 190.1,77.5 190.3,103 160.5,103.2 
		160.7,149.4 172.6,149.3 	"/>
</g>
</svg>
